<?xml version="1.0" encoding="UTF-8"?>
<svg width="1200pt" height="1200pt" version="1.1" viewBox="0 0 1200 1200" xmlns="http://www.w3.org/2000/svg">
 <g>
  <path d="m665.87 320.59c0 36.383-29.496 65.879-65.879 65.879-36.387 0-65.879-29.496-65.879-65.879 0-36.387 29.492-65.883 65.879-65.883 36.383 0 65.879 29.496 65.879 65.883"/>
  <path d="m730.37 442.03c-3.8398-20.879-21.793-36.742-43.453-36.742h-173.83c-21.66 0-39.613 15.852-43.453 36.742-0.46875 1.8008-0.81641 3.6719-0.81641 5.6289v210.62h48.445v-162.98h9.1211v449.97h67.523l-0.003906-259.38h12.168v259.38h67.57l0.003906-259.38v-190.59h9.1211v163h48.445l-0.003907-210.64c-0.011719-1.9453-0.37109-3.8047-0.83984-5.6289z"/>
 </g>
</svg>
